<?xml version="1.0" standalone="no"?>
<!DOCTYPE svg PUBLIC "-//W3C//DTD SVG 20010904//EN"
 "http://www.w3.org/TR/2001/REC-SVG-20010904/DTD/svg10.dtd">
<svg version="1.0" xmlns="http://www.w3.org/2000/svg"
 width="612.000000pt" height="408.000000pt" viewBox="0 0 612.000000 408.000000"
 preserveAspectRatio="xMidYMid meet">
<metadata>
Created by potrace 1.16, written by Peter Selinger 2001-2019
</metadata>
<g transform="translate(0.000000,408.000000) scale(0.100000,-0.100000)"
fill="#000000" stroke="none">
<path d="M2845 3864 c-104 -16 -290 -58 -368 -84 -123 -42 -333 -145 -437
-215 -187 -127 -377 -316 -504 -503 -70 -103 -174 -316 -216 -440 -72 -214
-109 -526 -89 -742 29 -310 128 -594 293 -841 105 -159 139 -200 258 -314 126
-121 156 -145 289 -231 328 -213 745 -319 1124 -285 325 28 601 120 854 285
133 86 163 110 289 231 119 114 153 155 258 314 216 323 318 703 294 1096 -16
267 -70 475 -185 712 -76 155 -147 262 -262 395 -160 186 -353 334 -578 443
-156 76 -271 116 -436 151 -108 23 -151 27 -339 29 -118 2 -228 1 -245 -1z
m614 -939 c34 -15 61 -29 61 -31 0 -1 -9 -19 -21 -38 -12 -20 -16 -36 -11 -36
6 0 40 -20 76 -44 l65 -44 24 31 24 32 69 -69 68 -68 -27 -24 c-15 -13 -27
-26 -27 -29 0 -3 19 -34 42 -68 24 -34 44 -64 46 -66 1 -3 17 3 36 11 l34 17
30 -67 c44 -97 45 -114 4 -126 -18 -5 -31 -14 -29 -20 3 -6 11 -44 18 -85 l14
-73 37 6 38 6 0 -95 0 -95 -39 0 -38 0 -16 -81 c-18 -88 -16 -99 14 -99 11 0
22 -7 26 -16 7 -19 -45 -154 -62 -161 -8 -2 -25 3 -39 12 -25 17 -26 17 -43
-15 -10 -18 -33 -51 -50 -75 l-33 -43 29 -24 28 -24 -32 -37 c-18 -20 -36 -37
-41 -37 -4 0 -53 30 -107 67 -94 65 -98 68 -78 82 32 21 114 128 154 201 108
196 108 473 1 669 -52 96 -110 167 -184 226 -104 84 -198 126 -361 159 l-25 5
9 83 c5 46 10 84 11 85 1 1 35 -5 76 -13 41 -8 78 -14 82 -14 3 0 12 15 18 34
10 32 13 34 40 26 15 -4 56 -20 89 -35z m-358 -332 l34 -108 123 -3 124 -3
-99 -72 -100 -73 34 -99 c18 -55 32 -105 31 -112 -2 -7 -43 17 -92 53 -49 35
-92 64 -96 64 -4 0 -47 -29 -96 -64 -49 -36 -90 -60 -92 -53 -1 7 13 57 31
112 l34 99 -100 73 -99 72 124 3 123 3 34 108 c20 59 38 107 41 107 3 0 21
-48 41 -107z m-306 -539 c72 -108 327 -326 729 -619 61 -44 120 -87 132 -95
12 -8 50 -35 85 -60 35 -25 67 -48 72 -51 10 -7 -61 -99 -75 -99 -4 0 -76 44
-160 98 -195 125 -308 193 -537 323 -216 122 -278 173 -323 267 -28 59 -32 77
-31 147 0 58 6 96 23 139 l23 59 15 -29 c8 -16 29 -52 47 -80z m-49 -667 c107
-54 182 -71 314 -71 78 0 135 5 177 17 l62 17 44 -27 c41 -24 47 -32 63 -92 9
-36 19 -71 21 -77 5 -14 -62 -38 -82 -30 -8 3 -15 14 -15 25 0 11 -4 22 -8 25
-5 3 -46 -2 -90 -12 l-82 -17 0 -37 0 -38 -90 0 -90 0 0 38 0 39 -80 17 c-86
18 -100 16 -100 -15 0 -11 -7 -22 -16 -26 -19 -7 -154 45 -161 62 -2 8 4 26
14 41 12 19 14 29 6 31 -11 4 -61 37 -112 75 -26 19 -27 18 43 101 l39 46 37
-29 c20 -16 67 -44 106 -63z m1210 -270 c145 -124 178 -173 161 -238 -16 -62
-70 -41 -128 48 -54 83 -109 129 -178 150 -31 9 -58 18 -60 20 -5 3 82 112 90
113 3 0 55 -42 115 -93z"/>
</g>
</svg>
